<?xml version="1.0" encoding="UTF-8"?>
<svg id="Layer_1" data-name="Layer 1" xmlns="http://www.w3.org/2000/svg" version="1.1" xmlns:xlink="http://www.w3.org/1999/xlink" viewBox="0 0 1000 1000">
  <defs>
    <style>
      .cls-1 {
        fill: #1683c6;
      }

      .cls-1, .cls-2, .cls-3 {
        stroke-width: 0px;
      }

      .cls-4 {
        mask: url(#mask-2);
      }

      .cls-5 {
        mask: url(#mask-3);
      }

      .cls-6 {
        mask: url(#mask-5);
      }

      .cls-2 {
        fill: #0f122f;
      }

      .cls-7 {
        mask: url(#mask-4);
      }

      .cls-3 {
        fill: #fff;
      }

      .cls-8 {
        mask: url(#mask-1);
      }

      .cls-9 {
        mask: url(#mask);
      }
    </style>
    <mask id="mask" x="234.43" y="569.57" width="531.14" height="245.63" maskUnits="userSpaceOnUse">
      <g id="mask0_321_308" data-name="mask0 321 308">
        <path class="cls-3" d="M761.85,569.57H234.46v245.63h527.39v-245.63Z"/>
      </g>
    </mask>
    <mask id="mask-1" x="234.43" y="623.04" width="531.14" height="229.18" maskUnits="userSpaceOnUse">
      <g id="mask1_321_308" data-name="mask1 321 308">
        <path class="cls-3" d="M761.82,623.04H234.43v229.18h527.39v-229.18Z"/>
      </g>
    </mask>
    <mask id="mask-2" x="234.43" y="356.07" width="531.14" height="245.55" maskUnits="userSpaceOnUse">
      <g id="mask2_321_308" data-name="mask2 321 308">
        <path class="cls-3" d="M761.85,356.07H234.46v245.55h527.39v-245.55Z"/>
      </g>
    </mask>
    <mask id="mask-3" x="234.43" y="414.75" width="531.14" height="229.58" maskUnits="userSpaceOnUse">
      <g id="mask3_321_308" data-name="mask3 321 308">
        <path class="cls-3" d="M761.83,414.75H234.43v229.58h527.39v-229.58Z"/>
      </g>
    </mask>
    <mask id="mask-4" x="234.43" y="147.78" width="531.14" height="245.63" maskUnits="userSpaceOnUse">
      <g id="mask4_321_308" data-name="mask4 321 308">
        <path class="cls-3" d="M761.86,147.78H234.47v245.63h527.39v-245.63Z"/>
      </g>
    </mask>
    <mask id="mask-5" x="234.43" y="201.21" width="531.14" height="229.58" maskUnits="userSpaceOnUse">
      <g id="mask5_321_308" data-name="mask5 321 308">
        <path class="cls-3" d="M761.82,201.21H234.43v229.58h527.39v-229.58Z"/>
      </g>
    </mask>
  </defs>
  <path class="cls-2" d="M62.4,0h875.1c34.52,0,62.5,27.98,62.5,62.5v875c0,34.52-27.98,62.5-62.5,62.5H62.4c-34.43,0-62.4-31.58-62.4-70.45V70.45C0,31.58,27.98,0,62.4,0Z"/>
  <g class="cls-9">
    <path class="cls-3" d="M765.57,626.03l-286.01,130.65-122.5,55.98-122.64-55.98,408.51-186.58,122.64,55.93Z"/>
  </g>
  <g class="cls-8">
    <path class="cls-1" d="M357,812.61l-122.57-56.01v39.61l122.57,55.97,408.57-186.63v-39.56l-408.57,186.63Z"/>
  </g>
  <g class="cls-4">
    <path class="cls-3" d="M765.57,414.91l-286.01,130.65-122.5,55.93-122.64-55.93,408.5-186.63,122.63,55.97Z"/>
  </g>
  <g class="cls-5">
    <path class="cls-1" d="M357,601.47l-122.57-55.97v39.56l122.57,56.01,408.57-186.62v-39.6l-408.57,186.63Z"/>
  </g>
  <g class="cls-7">
    <path class="cls-3" d="M765.57,203.76l-286.01,130.65-122.5,55.97-122.64-55.97,408.51-186.59,122.63,55.93Z"/>
  </g>
  <g class="cls-6">
    <path class="cls-1" d="M357,390.34l-122.57-56.01v39.6l122.57,55.97,408.57-186.63v-39.56l-408.57,186.63Z"/>
  </g>
</svg>