<?xml version="1.0" encoding="UTF-8"?>
<svg id="Layer_1" data-name="Layer 1" xmlns="http://www.w3.org/2000/svg" version="1.1" xmlns:xlink="http://www.w3.org/1999/xlink" viewBox="0 0 1000 370">
  <defs>
    <style>
      .cls-1 {
        fill: #1683c6;
      }

      .cls-1, .cls-2, .cls-3 {
        stroke-width: 0px;
      }

      .cls-4 {
        mask: url(#mask-2);
      }

      .cls-5 {
        mask: url(#mask-3);
      }

      .cls-6 {
        mask: url(#mask-5);
      }

      .cls-2 {
        fill: #0f122f;
      }

      .cls-7 {
        mask: url(#mask-4);
      }

      .cls-3 {
        fill: #fff;
      }

      .cls-8 {
        mask: url(#mask-1);
      }

      .cls-9 {
        mask: url(#mask);
      }
    </style>
    <mask id="mask" x="105.54" y="202.45" width="133.25" height="61.62" maskUnits="userSpaceOnUse">
      <g id="mask0_321_308" data-name="mask0 321 308">
        <path class="cls-3" d="M237.85,202.45H105.55v61.62h132.31v-61.62Z"/>
      </g>
    </mask>
    <mask id="mask-1" x="105.55" y="215.87" width="133.25" height="57.49" maskUnits="userSpaceOnUse">
      <g id="mask1_321_308" data-name="mask1 321 308">
        <path class="cls-3" d="M237.85,215.87H105.55v57.49h132.31v-57.49Z"/>
      </g>
    </mask>
    <mask id="mask-2" x="105.54" y="148.89" width="133.25" height="61.6" maskUnits="userSpaceOnUse">
      <g id="mask2_321_308" data-name="mask2 321 308">
        <path class="cls-3" d="M237.85,148.89H105.55v61.6h132.31v-61.6Z"/>
      </g>
    </mask>
    <mask id="mask-3" x="105.55" y="163.61" width="133.25" height="57.59" maskUnits="userSpaceOnUse">
      <g id="mask3_321_308" data-name="mask3 321 308">
        <path class="cls-3" d="M237.85,163.61H105.55v57.59h132.31v-57.59Z"/>
      </g>
    </mask>
    <mask id="mask-4" x="105.54" y="96.64" width="133.25" height="61.62" maskUnits="userSpaceOnUse">
      <g id="mask4_321_308" data-name="mask4 321 308">
        <path class="cls-3" d="M237.85,96.64H105.55v61.62h132.3v-61.62Z"/>
      </g>
    </mask>
    <mask id="mask-5" x="105.55" y="110.04" width="133.25" height="57.6" maskUnits="userSpaceOnUse">
      <g id="mask5_321_308" data-name="mask5 321 308">
        <path class="cls-3" d="M237.85,110.04H105.55v57.6h132.31v-57.6Z"/>
      </g>
    </mask>
  </defs>
  <path class="cls-3" d="M72.88,59.57h197.88c8.66,0,15.68,7.02,15.68,15.68v219.51c0,8.66-7.02,15.68-15.68,15.68H72.88c-8.64,0-15.66-7.92-15.66-17.67V77.24c0-9.75,7.02-17.67,15.66-17.67Z"/>
  <g class="cls-9">
    <path class="cls-1" d="M238.79,216.62l-71.75,32.78-30.73,14.04-30.77-14.04,102.48-46.81,30.77,14.03Z"/>
  </g>
  <g class="cls-8">
    <path class="cls-2" d="M136.3,263.42l-30.75-14.05v9.94l30.75,14.04,102.5-46.82v-9.92l-102.5,46.82Z"/>
  </g>
  <g class="cls-4">
    <path class="cls-1" d="M238.79,163.65l-71.75,32.78-30.73,14.03-30.77-14.03,102.48-46.82,30.76,14.04Z"/>
  </g>
  <g class="cls-5">
    <path class="cls-2" d="M136.3,210.45l-30.75-14.04v9.93l30.75,14.05,102.5-46.82v-9.94l-102.5,46.82Z"/>
  </g>
  <g class="cls-7">
    <path class="cls-1" d="M238.78,110.68l-71.75,32.78-30.73,14.04-30.77-14.04,102.48-46.81,30.76,14.03Z"/>
  </g>
  <g class="cls-6">
    <path class="cls-2" d="M136.3,157.49l-30.75-14.05v9.94l30.75,14.04,102.5-46.82v-9.93l-102.5,46.82Z"/>
  </g>
  <path class="cls-1" d="M942.77,294.66v12.37h-41.43v-12.37h41.43ZM906.58,230.08v76.94h-16.04v-76.94h16.04ZM937.37,261.42v12.05h-36.03v-12.05h36.03ZM942.72,230.08v12.42h-41.38v-12.42h41.38Z"/>
  <path class="cls-1" d="M862.93,281.5h15.98c-.32,5.18-1.76,9.78-4.33,13.79-2.53,4.02-6.08,7.15-10.64,9.41-4.53,2.25-9.98,3.38-16.36,3.38-4.99,0-9.46-.85-13.42-2.54-3.96-1.73-7.34-4.19-10.16-7.4-2.78-3.21-4.9-7.08-6.36-11.63-1.46-4.54-2.19-9.63-2.19-15.27v-5.34c0-5.64.75-10.73,2.25-15.27,1.53-4.58,3.71-8.47,6.52-11.68,2.85-3.2,6.25-5.67,10.21-7.4,3.96-1.73,8.38-2.59,13.26-2.59,6.49,0,11.96,1.16,16.41,3.49,4.49,2.33,7.97,5.53,10.43,9.62,2.49,4.09,3.99,8.74,4.49,13.95h-16.04c-.18-3.1-.8-5.72-1.87-7.87-1.07-2.18-2.69-3.82-4.87-4.91-2.14-1.13-4.99-1.69-8.55-1.69-2.67,0-5.01.49-7,1.48-2,.99-3.67,2.48-5.03,4.49-1.35,2.01-2.37,4.54-3.05,7.61-.64,3.03-.96,6.59-.96,10.67v5.44c0,3.98.3,7.49.91,10.52.61,2.99,1.53,5.53,2.78,7.61,1.28,2.04,2.92,3.59,4.92,4.65,2.03,1.02,4.47,1.53,7.33,1.53,3.35,0,6.11-.53,8.29-1.59,2.17-1.06,3.83-2.62,4.97-4.7,1.18-2.08,1.87-4.67,2.09-7.77Z"/>
  <path class="cls-1" d="M746.56,230.08h29.03c5.95,0,11.07.88,15.35,2.64,4.31,1.76,7.63,4.37,9.94,7.82,2.32,3.45,3.47,7.7,3.47,12.73,0,4.12-.71,7.66-2.14,10.62-1.39,2.92-3.37,5.37-5.93,7.34-2.53,1.94-5.51,3.49-8.93,4.65l-5.08,2.64h-25.24l-.11-12.36h18.77c2.81,0,5.15-.49,7-1.48,1.85-.99,3.24-2.36,4.17-4.12.96-1.76,1.44-3.8,1.44-6.13,0-2.47-.46-4.6-1.39-6.39-.93-1.8-2.33-3.17-4.22-4.12-1.89-.95-4.26-1.43-7.11-1.43h-12.99v64.52h-16.04v-76.94ZM790.08,307.02l-17.75-34.3,16.95-.11,17.96,33.66v.74h-17.16Z"/>
  <path class="cls-1" d="M736.11,294.66v12.37h-41.44v-12.37h41.44ZM699.92,230.08v76.94h-16.04v-76.94h16.04ZM730.71,261.42v12.05h-36.04v-12.05h36.04ZM736.06,230.08v12.42h-41.38v-12.42h41.38Z"/>
  <path class="cls-1" d="M594.2,230.08h13.58l20,56.49,19.99-56.49h13.58l-28.12,76.94h-10.91l-28.12-76.94ZM586.87,230.08h13.52l2.46,55.06v21.88h-15.98v-76.94ZM655.14,230.08h13.58v76.94h-16.04v-21.88l2.46-55.06Z"/>
  <path class="cls-1" d="M497.19,230.08h13.58l20,56.49,19.99-56.49h13.58l-28.12,76.94h-10.91l-28.12-76.94ZM489.86,230.08h13.53l2.46,55.06v21.88h-15.99v-76.94ZM558.14,230.08h13.58v76.94h-16.04v-21.88l2.46-55.06Z"/>
  <path class="cls-1" d="M477.22,266.76v3.65c0,5.85-.8,11.1-2.41,15.75-1.6,4.65-3.87,8.61-6.79,11.89-2.92,3.24-6.42,5.72-10.48,7.45-4.03,1.73-8.5,2.59-13.42,2.59s-9.36-.86-13.42-2.59c-4.03-1.73-7.52-4.21-10.48-7.45-2.96-3.28-5.26-7.24-6.9-11.89-1.6-4.65-2.41-9.9-2.41-15.75v-3.65c0-5.88.8-11.13,2.41-15.75,1.6-4.65,3.87-8.61,6.79-11.89,2.96-3.28,6.45-5.78,10.48-7.5,4.06-1.73,8.54-2.59,13.42-2.59s9.39.86,13.42,2.59c4.06,1.73,7.56,4.23,10.48,7.5,2.96,3.28,5.24,7.24,6.84,11.89,1.64,4.61,2.46,9.86,2.46,15.75ZM461.02,270.4v-3.75c0-4.09-.37-7.68-1.12-10.78-.75-3.1-1.85-5.71-3.31-7.82-1.46-2.11-3.24-3.7-5.35-4.76-2.1-1.09-4.51-1.64-7.22-1.64s-5.11.55-7.22,1.64c-2.07,1.06-3.83,2.64-5.29,4.76-1.43,2.11-2.51,4.72-3.26,7.82-.75,3.1-1.12,6.69-1.12,10.78v3.75c0,4.05.37,7.65,1.12,10.78.75,3.1,1.85,5.72,3.31,7.87,1.46,2.11,3.24,3.72,5.35,4.81,2.1,1.09,4.51,1.64,7.22,1.64s5.11-.55,7.22-1.64c2.1-1.09,3.87-2.7,5.29-4.81,1.43-2.15,2.51-4.77,3.26-7.87.75-3.14,1.12-6.73,1.12-10.78Z"/>
  <path class="cls-1" d="M385.67,281.5h15.99c-.32,5.18-1.77,9.78-4.33,13.79-2.53,4.02-6.08,7.15-10.64,9.41-4.53,2.25-9.98,3.38-16.36,3.38-4.99,0-9.46-.85-13.42-2.54-3.96-1.73-7.34-4.19-10.16-7.4-2.78-3.21-4.9-7.08-6.36-11.63-1.46-4.54-2.19-9.63-2.19-15.27v-5.34c0-5.64.75-10.73,2.25-15.27,1.53-4.58,3.71-8.47,6.52-11.68,2.85-3.2,6.26-5.67,10.21-7.4,3.96-1.73,8.38-2.59,13.26-2.59,6.49,0,11.96,1.16,16.41,3.49,4.49,2.33,7.97,5.53,10.43,9.62,2.49,4.09,3.99,8.74,4.49,13.95h-16.04c-.18-3.1-.8-5.72-1.87-7.87-1.07-2.18-2.69-3.82-4.87-4.91-2.14-1.13-4.99-1.69-8.55-1.69-2.67,0-5.01.49-7,1.48s-3.67,2.48-5.03,4.49-2.37,4.54-3.05,7.61c-.64,3.03-.96,6.59-.96,10.67v5.44c0,3.98.3,7.49.91,10.52.61,2.99,1.53,5.53,2.78,7.61,1.28,2.04,2.92,3.59,4.92,4.65,2.03,1.02,4.47,1.53,7.32,1.53,3.35,0,6.11-.53,8.29-1.59,2.17-1.06,3.83-2.62,4.97-4.7,1.18-2.08,1.87-4.67,2.09-7.77Z"/>
  <path class="cls-3" d="M338.19,59.57h80.29v20.56h-50.86v38.03h40.42v20.55h-40.42v44.2h50.86v20.55h-80.29V59.57Z"/>
  <path class="cls-3" d="M567.57,80.13h-30.78v-20.56h91.01v20.56h-30.78v123.35h-29.45v-123.35Z"/>
  <path class="cls-3" d="M641.99,59.57h80.29v20.56h-50.86v38.03h40.42v20.55h-40.42v44.2h50.86v20.55h-80.29V59.57Z"/>
  <path class="cls-3" d="M739.14,59.57h36.94l28.64,86.13h.54V59.57h26.24v143.9h-30.24l-35.34-105.04h-.54v105.04h-26.24V59.57Z"/>
  <path class="cls-3" d="M853.45,59.57h44.97c14.63,0,25.61,3.02,32.92,9.04,7.32,6.04,10.98,14.87,10.98,26.52v72.78c0,11.65-3.66,20.49-10.98,26.52-7.32,6.04-18.29,9.04-32.92,9.04h-44.97V59.57ZM897.88,182.91c4.81,0,8.52-1.1,11.1-3.29,2.59-2.19,3.89-5.76,3.89-10.69v-74.82c0-4.93-1.3-8.49-3.89-10.69-2.59-2.19-6.29-3.29-11.1-3.29h-14.99v102.78h14.99Z"/>
  <path class="cls-3" d="M462.79,129.59l-32.4-70.02h31.05l19.82,46.27h.54l20.35-46.27h27.84l-32.4,70.02,34,73.29h-31.05l-21.41-49.95h-.54l-21.95,49.95h-27.84l34-73.29Z"/>
</svg>