<svg width="886" height="252" viewBox="0 0 886 252" fill="none" xmlns="http://www.w3.org/2000/svg">
<path d="M15.88 0.570068H213.76C222.42 0.570068 229.44 7.59007 229.44 16.2501V235.76C229.44 244.42 222.42 251.44 213.76 251.44H15.88C7.23997 251.44 0.219971 243.52 0.219971 233.77V18.2401C0.219971 8.49007 7.23997 0.570068 15.88 0.570068Z" fill="#0F122F"/>
<path d="M181.79 157.62L110.04 190.4L79.31 204.44L48.54 190.4L151.02 143.59L181.79 157.62Z" fill="white"/>
<path d="M79.3 204.42L48.55 190.37V200.31L79.3 214.35L181.8 167.53V157.61L79.3 204.43V204.42Z" fill="#1683C6"/>
<path d="M181.79 104.65L110.04 137.43L79.31 151.46L48.54 137.43L151.02 90.6101L181.78 104.65H181.79Z" fill="white"/>
<path d="M79.3 151.45L48.55 137.41V147.34L79.3 161.39L181.8 114.57V104.63L79.3 151.45Z" fill="#1683C6"/>
<path d="M181.78 51.6799L110.03 84.4599L79.3 98.4999L48.53 84.4599L151.01 37.6499L181.77 51.6799H181.78Z" fill="white"/>
<path d="M79.3 98.4899L48.55 84.4399V94.3799L79.3 108.42L181.8 61.5999V51.6699L79.3 98.4899Z" fill="#1683C6"/>
<path d="M885.77 235.66V248.03H844.34V235.66H885.77ZM849.58 171.08V248.02H833.54V171.08H849.58ZM880.37 202.42V214.47H844.34V202.42H880.37ZM885.72 171.08V183.5H844.34V171.08H885.72Z" fill="#1683C6"/>
<path d="M805.93 222.5H821.91C821.59 227.68 820.15 232.28 817.58 236.29C815.05 240.31 811.5 243.44 806.94 245.7C802.41 247.95 796.96 249.08 790.58 249.08C785.59 249.08 781.12 248.23 777.16 246.54C773.2 244.81 769.82 242.35 767 239.14C764.22 235.93 762.1 232.06 760.64 227.51C759.18 222.97 758.45 217.88 758.45 212.24V206.9C758.45 201.26 759.2 196.17 760.7 191.63C762.23 187.05 764.41 183.16 767.22 179.95C770.07 176.75 773.47 174.28 777.43 172.55C781.39 170.82 785.81 169.96 790.69 169.96C797.18 169.96 802.65 171.12 807.1 173.45C811.59 175.78 815.07 178.98 817.53 183.07C820.02 187.16 821.52 191.81 822.02 197.02H805.98C805.8 193.92 805.18 191.3 804.11 189.15C803.04 186.97 801.42 185.33 799.24 184.24C797.1 183.11 794.25 182.55 790.69 182.55C788.02 182.55 785.68 183.04 783.69 184.03C781.69 185.02 780.02 186.51 778.66 188.52C777.31 190.53 776.29 193.06 775.61 196.13C774.97 199.16 774.65 202.72 774.65 206.8V212.24C774.65 216.22 774.95 219.73 775.56 222.76C776.17 225.75 777.09 228.29 778.34 230.37C779.62 232.41 781.26 233.96 783.26 235.02C785.29 236.04 787.73 236.55 790.59 236.55C793.94 236.55 796.7 236.02 798.88 234.96C801.05 233.9 802.71 232.34 803.85 230.26C805.03 228.18 805.72 225.59 805.94 222.49L805.93 222.5Z" fill="#1683C6"/>
<path d="M689.56 171.08H718.59C724.54 171.08 729.66 171.96 733.94 173.72C738.25 175.48 741.57 178.09 743.88 181.54C746.2 184.99 747.35 189.24 747.35 194.27C747.35 198.39 746.64 201.93 745.21 204.89C743.82 207.81 741.84 210.26 739.28 212.23C736.75 214.17 733.77 215.72 730.35 216.88L725.27 219.52H700.03L699.92 207.16H718.69C721.5 207.16 723.84 206.67 725.69 205.68C727.54 204.69 728.93 203.32 729.86 201.56C730.82 199.8 731.3 197.76 731.3 195.43C731.3 192.96 730.84 190.83 729.91 189.04C728.98 187.24 727.58 185.87 725.69 184.92C723.8 183.97 721.43 183.49 718.58 183.49H705.59V248.01H689.55V171.07L689.56 171.08ZM733.08 248.02L715.33 213.72L732.28 213.61L750.24 247.27V248.01H733.08V248.02Z" fill="#1683C6"/>
<path d="M679.11 235.66V248.03H637.67V235.66H679.11ZM642.92 171.08V248.02H626.88V171.08H642.92ZM673.71 202.42V214.47H637.67V202.42H673.71ZM679.06 171.08V183.5H637.68V171.08H679.06Z" fill="#1683C6"/>
<path d="M537.2 171.08H550.78L570.78 227.57L590.77 171.08H604.35L576.23 248.02H565.32L537.2 171.08ZM529.87 171.08H543.39L545.85 226.14V248.02H529.87V171.08ZM598.14 171.08H611.72V248.02H595.68V226.14L598.14 171.08Z" fill="#1683C6"/>
<path d="M440.19 171.08H453.77L473.77 227.57L493.76 171.08H507.34L479.22 248.02H468.31L440.19 171.08ZM432.86 171.08H446.39L448.85 226.14V248.02H432.86V171.08ZM501.14 171.08H514.72V248.02H498.68V226.14L501.14 171.08Z" fill="#1683C6"/>
<path d="M420.22 207.76V211.41C420.22 217.26 419.42 222.51 417.81 227.16C416.21 231.81 413.94 235.77 411.02 239.05C408.1 242.29 404.6 244.77 400.54 246.5C396.51 248.23 392.04 249.09 387.12 249.09C382.2 249.09 377.76 248.23 373.7 246.5C369.67 244.77 366.18 242.29 363.22 239.05C360.26 235.77 357.96 231.81 356.32 227.16C354.72 222.51 353.91 217.26 353.91 211.41V207.76C353.91 201.88 354.71 196.63 356.32 192.01C357.92 187.36 360.19 183.4 363.11 180.12C366.07 176.84 369.56 174.34 373.59 172.62C377.65 170.89 382.13 170.03 387.01 170.03C391.89 170.03 396.4 170.89 400.43 172.62C404.49 174.35 407.99 176.85 410.91 180.12C413.87 183.4 416.15 187.36 417.75 192.01C419.39 196.62 420.21 201.87 420.21 207.76H420.22ZM404.02 211.4V207.65C404.02 203.56 403.65 199.97 402.9 196.87C402.15 193.77 401.05 191.16 399.59 189.05C398.13 186.94 396.35 185.35 394.24 184.29C392.14 183.2 389.73 182.65 387.02 182.65C384.31 182.65 381.91 183.2 379.8 184.29C377.73 185.35 375.97 186.93 374.51 189.05C373.08 191.16 372 193.77 371.25 196.87C370.5 199.97 370.13 203.56 370.13 207.65V211.4C370.13 215.45 370.5 219.05 371.25 222.18C372 225.28 373.1 227.9 374.56 230.05C376.02 232.16 377.8 233.77 379.91 234.86C382.01 235.95 384.42 236.5 387.13 236.5C389.84 236.5 392.24 235.95 394.35 234.86C396.45 233.77 398.22 232.16 399.64 230.05C401.07 227.9 402.15 225.28 402.9 222.18C403.65 219.04 404.02 215.45 404.02 211.4Z" fill="#1683C6"/>
<path d="M328.67 222.5H344.66C344.34 227.68 342.89 232.28 340.33 236.29C337.8 240.31 334.25 243.44 329.69 245.7C325.16 247.95 319.71 249.08 313.33 249.08C308.34 249.08 303.87 248.23 299.91 246.54C295.95 244.81 292.57 242.35 289.75 239.14C286.97 235.93 284.85 232.06 283.39 227.51C281.93 222.97 281.2 217.88 281.2 212.24V206.9C281.2 201.26 281.95 196.17 283.45 191.63C284.98 187.05 287.16 183.16 289.97 179.95C292.82 176.75 296.23 174.28 300.18 172.55C304.14 170.82 308.56 169.96 313.44 169.96C319.93 169.96 325.4 171.12 329.85 173.45C334.34 175.78 337.82 178.98 340.28 183.07C342.77 187.16 344.27 191.81 344.77 197.02H328.73C328.55 193.92 327.93 191.3 326.86 189.15C325.79 186.97 324.17 185.33 321.99 184.24C319.85 183.11 317 182.55 313.44 182.55C310.77 182.55 308.43 183.04 306.44 184.03C304.45 185.02 302.77 186.51 301.41 188.52C300.05 190.53 299.04 193.06 298.36 196.13C297.72 199.16 297.4 202.72 297.4 206.8V212.24C297.4 216.22 297.7 219.73 298.31 222.76C298.92 225.75 299.84 228.29 301.09 230.37C302.37 232.41 304.01 233.96 306.01 235.02C308.04 236.04 310.48 236.55 313.33 236.55C316.68 236.55 319.44 236.02 321.62 234.96C323.79 233.9 325.45 232.34 326.59 230.26C327.77 228.18 328.46 225.59 328.68 222.49L328.67 222.5Z" fill="#1683C6"/>
<path d="M281.19 0.570068H361.48V21.1301H310.62V59.1601H351.04V79.7101H310.62V123.91H361.48V144.46H281.19V0.570068Z" fill="#0F122F"/>
<path d="M510.57 21.1301H479.79V0.570068H570.8V21.1301H540.02V144.48H510.57V21.1301Z" fill="#0F122F"/>
<path d="M584.99 0.570068H665.28V21.1301H614.42V59.1601H654.84V79.7101H614.42V123.91H665.28V144.46H584.99V0.570068Z" fill="#0F122F"/>
<path d="M682.14 0.570068H719.08L747.72 86.7001H748.26V0.570068H774.5V144.47H744.26L708.92 39.4301H708.38V144.47H682.14V0.570068Z" fill="#0F122F"/>
<path d="M796.45 0.570068H841.42C856.05 0.570068 867.03 3.59007 874.34 9.61007C881.66 15.6501 885.32 24.4801 885.32 36.1301V108.91C885.32 120.56 881.66 129.4 874.34 135.43C867.02 141.47 856.05 144.47 841.42 144.47H796.45V0.570068ZM840.88 123.91C845.69 123.91 849.4 122.81 851.98 120.62C854.57 118.43 855.87 114.86 855.87 109.93V35.1101C855.87 30.1801 854.57 26.6201 851.98 24.4201C849.39 22.2301 845.69 21.1301 840.88 21.1301H825.89V123.91H840.88Z" fill="#0F122F"/>
<path d="M405.79 70.5901L373.39 0.570068H404.44L424.26 46.8401H424.8L445.15 0.570068H472.99L440.59 70.5901L474.59 143.88H443.54L422.13 93.9301H421.59L399.64 143.88H371.8L405.8 70.5901H405.79Z" fill="#0F122F"/>
</svg>
